<mxfile host="app.diagrams.net" modified="2024-04-01T00:15:24.340Z" agent="Mozilla/5.0 (Windows NT 10.0; Win64; x64) AppleWebKit/537.36 (KHTML, like Gecko) Chrome/123.0.0.0 Safari/537.36" etag="a9FkKihj8ig95DREaf2w" version="24.2.1" type="device">
  <diagram name="Page-1" id="VbUhjEx8rblW9G_KD2AZ">
    <mxGraphModel dx="1034" dy="507" grid="1" gridSize="10" guides="1" tooltips="1" connect="1" arrows="1" fold="1" page="1" pageScale="1" pageWidth="827" pageHeight="1169" math="0" shadow="0">
      <root>
        <mxCell id="0" />
        <mxCell id="1" parent="0" />
        <mxCell id="03osAfNEXOYvgnm-0UF2-1" value="Wake up by 6:00am&lt;div&gt;&lt;br&gt;&lt;/div&gt;" style="rounded=1;whiteSpace=wrap;html=1;" vertex="1" parent="1">
          <mxGeometry x="354" y="30" width="120" height="50" as="geometry" />
        </mxCell>
        <mxCell id="03osAfNEXOYvgnm-0UF2-4" value="" style="endArrow=classic;html=1;rounded=0;" edge="1" parent="1">
          <mxGeometry width="50" height="50" relative="1" as="geometry">
            <mxPoint x="410" y="80" as="sourcePoint" />
            <mxPoint x="411" y="130" as="targetPoint" />
            <Array as="points">
              <mxPoint x="411" y="130" />
            </Array>
          </mxGeometry>
        </mxCell>
        <mxCell id="03osAfNEXOYvgnm-0UF2-5" value="Pray by 6:15am&lt;div&gt;&lt;br&gt;&lt;/div&gt;" style="rounded=0;whiteSpace=wrap;html=1;" vertex="1" parent="1">
          <mxGeometry x="350" y="130" width="120" height="40" as="geometry" />
        </mxCell>
        <mxCell id="03osAfNEXOYvgnm-0UF2-6" value="" style="endArrow=classic;html=1;rounded=0;" edge="1" parent="1">
          <mxGeometry width="50" height="50" relative="1" as="geometry">
            <mxPoint x="409.5" y="170" as="sourcePoint" />
            <mxPoint x="410" y="220" as="targetPoint" />
          </mxGeometry>
        </mxCell>
        <mxCell id="03osAfNEXOYvgnm-0UF2-9" value="" style="edgeStyle=orthogonalEdgeStyle;rounded=0;orthogonalLoop=1;jettySize=auto;html=1;" edge="1" parent="1" source="03osAfNEXOYvgnm-0UF2-7" target="03osAfNEXOYvgnm-0UF2-8">
          <mxGeometry relative="1" as="geometry" />
        </mxCell>
        <mxCell id="03osAfNEXOYvgnm-0UF2-7" value="Brush teeth by 6:30am" style="rounded=0;whiteSpace=wrap;html=1;" vertex="1" parent="1">
          <mxGeometry x="350" y="220" width="120" height="40" as="geometry" />
        </mxCell>
        <mxCell id="03osAfNEXOYvgnm-0UF2-11" value="" style="edgeStyle=orthogonalEdgeStyle;rounded=0;orthogonalLoop=1;jettySize=auto;html=1;" edge="1" parent="1" source="03osAfNEXOYvgnm-0UF2-8" target="03osAfNEXOYvgnm-0UF2-10">
          <mxGeometry relative="1" as="geometry" />
        </mxCell>
        <mxCell id="03osAfNEXOYvgnm-0UF2-8" value="Shower by 7:00am" style="whiteSpace=wrap;html=1;rounded=0;" vertex="1" parent="1">
          <mxGeometry x="350" y="300" width="120" height="40" as="geometry" />
        </mxCell>
        <mxCell id="03osAfNEXOYvgnm-0UF2-10" value="Dress up by 7:15am&lt;div&gt;&lt;br&gt;&lt;/div&gt;" style="whiteSpace=wrap;html=1;rounded=0;" vertex="1" parent="1">
          <mxGeometry x="350" y="380" width="120" height="30" as="geometry" />
        </mxCell>
        <mxCell id="03osAfNEXOYvgnm-0UF2-19" value="If time &amp;lt; 10 minutes" style="rhombus;whiteSpace=wrap;html=1;" vertex="1" parent="1">
          <mxGeometry x="335" y="465" width="150" height="120" as="geometry" />
        </mxCell>
        <mxCell id="03osAfNEXOYvgnm-0UF2-20" value="" style="endArrow=classic;html=1;rounded=0;entryX=0.5;entryY=0;entryDx=0;entryDy=0;" edge="1" parent="1" target="03osAfNEXOYvgnm-0UF2-19">
          <mxGeometry width="50" height="50" relative="1" as="geometry">
            <mxPoint x="409.5" y="410" as="sourcePoint" />
            <mxPoint x="409.5" y="480.03999999999996" as="targetPoint" />
          </mxGeometry>
        </mxCell>
        <mxCell id="03osAfNEXOYvgnm-0UF2-25" value="" style="endArrow=none;html=1;rounded=0;" edge="1" parent="1">
          <mxGeometry width="50" height="50" relative="1" as="geometry">
            <mxPoint x="210" y="524.5" as="sourcePoint" />
            <mxPoint x="335" y="524.5" as="targetPoint" />
          </mxGeometry>
        </mxCell>
        <mxCell id="03osAfNEXOYvgnm-0UF2-27" value="" style="endArrow=classic;html=1;rounded=0;" edge="1" parent="1">
          <mxGeometry width="50" height="50" relative="1" as="geometry">
            <mxPoint x="210" y="520" as="sourcePoint" />
            <mxPoint x="210" y="630" as="targetPoint" />
            <Array as="points">
              <mxPoint x="210" y="560" />
            </Array>
          </mxGeometry>
        </mxCell>
        <mxCell id="03osAfNEXOYvgnm-0UF2-29" value="Eat breakfast" style="rounded=0;whiteSpace=wrap;html=1;" vertex="1" parent="1">
          <mxGeometry x="150" y="630" width="120" height="40" as="geometry" />
        </mxCell>
        <mxCell id="03osAfNEXOYvgnm-0UF2-30" value="" style="endArrow=none;html=1;rounded=0;" edge="1" parent="1">
          <mxGeometry width="50" height="50" relative="1" as="geometry">
            <mxPoint x="485" y="524.5" as="sourcePoint" />
            <mxPoint x="620" y="524.5" as="targetPoint" />
          </mxGeometry>
        </mxCell>
        <mxCell id="03osAfNEXOYvgnm-0UF2-32" value="" style="endArrow=none;html=1;rounded=0;" edge="1" parent="1">
          <mxGeometry width="50" height="50" relative="1" as="geometry">
            <mxPoint x="620" y="710" as="sourcePoint" />
            <mxPoint x="620" y="520" as="targetPoint" />
          </mxGeometry>
        </mxCell>
        <mxCell id="03osAfNEXOYvgnm-0UF2-33" value="" style="endArrow=none;html=1;rounded=0;" edge="1" parent="1">
          <mxGeometry width="50" height="50" relative="1" as="geometry">
            <mxPoint x="210" y="710" as="sourcePoint" />
            <mxPoint x="210" y="670" as="targetPoint" />
          </mxGeometry>
        </mxCell>
        <mxCell id="03osAfNEXOYvgnm-0UF2-35" value="" style="endArrow=classic;html=1;rounded=0;" edge="1" parent="1">
          <mxGeometry width="50" height="50" relative="1" as="geometry">
            <mxPoint x="210" y="710" as="sourcePoint" />
            <mxPoint x="360" y="710" as="targetPoint" />
          </mxGeometry>
        </mxCell>
        <mxCell id="03osAfNEXOYvgnm-0UF2-37" value="" style="endArrow=classic;html=1;rounded=0;" edge="1" parent="1" target="03osAfNEXOYvgnm-0UF2-38">
          <mxGeometry width="50" height="50" relative="1" as="geometry">
            <mxPoint x="620" y="710" as="sourcePoint" />
            <mxPoint x="480" y="710" as="targetPoint" />
          </mxGeometry>
        </mxCell>
        <mxCell id="03osAfNEXOYvgnm-0UF2-38" value="Go to school by 8:00am" style="rounded=1;whiteSpace=wrap;html=1;" vertex="1" parent="1">
          <mxGeometry x="360" y="680" width="125" height="60" as="geometry" />
        </mxCell>
        <mxCell id="03osAfNEXOYvgnm-0UF2-39" value="YES" style="text;html=1;align=center;verticalAlign=middle;whiteSpace=wrap;rounded=0;" vertex="1" parent="1">
          <mxGeometry x="240" y="490" width="60" height="30" as="geometry" />
        </mxCell>
        <mxCell id="03osAfNEXOYvgnm-0UF2-40" value="NO" style="text;html=1;align=center;verticalAlign=middle;whiteSpace=wrap;rounded=0;" vertex="1" parent="1">
          <mxGeometry x="500" y="490" width="60" height="30" as="geometry" />
        </mxCell>
      </root>
    </mxGraphModel>
  </diagram>
</mxfile>
